<?xml version="1.0" encoding="UTF-8" standalone="no"?>
<svg
   viewBox="0 0 121.10691 43.841461"
   fill="none"
   version="1.1"
   sodipodi:docname="lzb.svg"
   inkscape:version="1.4 (86a8ad7, 2024-10-11)"
   id="svg1"
   xmlns:inkscape="http://www.inkscape.org/namespaces/inkscape"
   xmlns:sodipodi="http://sodipodi.sourceforge.net/DTD/sodipodi-0.dtd"
   xmlns="http://www.w3.org/2000/svg"
   xmlns:svg="http://www.w3.org/2000/svg">
  <defs
     id="defs9" />
  <sodipodi:namedview
     id="namedview9"
     pagecolor="#ffffff"
     bordercolor="#000000"
     borderopacity="0.25"
     inkscape:showpageshadow="2"
     inkscape:pageopacity="0.0"
     inkscape:pagecheckerboard="0"
     inkscape:deskcolor="#d1d1d1"
     inkscape:zoom="7.0357143"
     inkscape:cx="7.6040609"
     inkscape:cy="-2.7715736"
     inkscape:window-width="1920"
     inkscape:window-height="991"
     inkscape:window-x="-9"
     inkscape:window-y="-9"
     inkscape:window-maximized="1" />
  <path
     d="m 94.962,12.70791 c -3.0983,-0.1702 -6.3416,1.7226 -8.1938,4.5569 -3.3887,5.1859 -1.5268,12.3734 5.0479,12.7348 3.0654,0.1689 5.9737,-1.4702 7.8259,-4.3046 3.412,-5.2226 1.628,-12.6404 -4.6795,-12.9871 m -5.1731,7.4288 c 3.2337,-7.722 10.2846,-5.1181 7.1407,2.5142 -3.1169,7.5669 -10.3924,5.2512 -7.1407,-2.5142 z"
     fill="#003349"
     id="path2" />
  <path
     d="m 78.2583,12.69301 c -2.2294,0 -3.2779,0.72 -3.2787,0.7204 0,0 3.3853,-6.2130198 4.1219,-7.6251398 1.6508,-3.16505 -2.6132,-4.57085 -3.7894,-1.70069 C 69.6464,17.91431 65.1265,25.56641 64.5766,26.54801 c -1.8678,3.334 2.5825,4.5346 3.4296,2.2445 0.1812,-0.4878 0.3485,-1.0477 0.3839,-1.1185 0.5554,1.172 2.21,2.3385 5.3349,2.3385 4.0094,0 9.4619,-2.5584 10.1804,-9.5617 0.5095,-4.9635 -3.1291,-7.7578 -5.648,-7.7578 m 0.5736,10.7434 c -2.1902,4.0401 -5.2953,4.1024 -6.5199,3.6394 -1.6803,-0.6353 -2.2724,-4.1799 -0.0371,-7.9044 2.2517,-3.7515 4.6947,-4.0847 5.9286,-3.5914 1.4594,0.5839 2.5147,4.3771 0.6288,7.8564"
     fill="#003349"
     id="path3" />
  <path
     d="m 47.9479,18.75221 h -2.7343 c -0.7632,0 -1.3835,0.6176 -1.3835,1.3809 0,0.7634 0.6203,1.3835 1.3835,1.3835 h 2.7343 c 0.7632,0 1.3839,-0.6176 1.3839,-1.3835 0,-0.7658 -0.6207,-1.3809 -1.3839,-1.3809 z"
     fill="#003349"
     id="path4" />
  <path
     d="m 64.0875,18.75221 h -2.7342 c -0.7632,0 -1.3836,0.6176 -1.3836,1.3809 0,0.7634 0.6204,1.3835 1.3836,1.3835 h 2.7342 c 0.7632,0 1.384,-0.6176 1.384,-1.3835 0,-0.7658 -0.6208,-1.3809 -1.384,-1.3809 z"
     fill="#003349"
     id="path5" />
  <path
     d="M 21.0278,12.69941 C 27.594,12.57471 30.6064,10.23961 31.9874,6.9856702 33.3819,3.6997102 31.448,0.04892017 28.1967,4.7347496e-4 24.3617,-0.05682023 21.4698,5.0954002 18.3567,10.11361 c -1.1391,0.1934 -2.8404,0.1639 -4.5792,-0.2143898 -1.333,-0.29068 -1.8817,1.5152898 -0.6237,2.0309898 1.2967,0.5316 3.58,0.7545 3.583,0.7208 -2.2682,3.7039 -5.2666,8.8974 -6.6325,10.7489 C 3.48832,20.76481 0.0267034,23.75461 1.5336074e-4,26.51231 -0.0188109,28.48551 1.72085,30.34001 5.32195,29.93141 c 2.04604,-0.2322 3.5497,-0.7133 5.24515,-2.1304 2.8733,1.7976 8.1276,3.2451 12.709,1.2255 1.451,-0.6404 0.8163,-2.491 -0.7552,-2.0546 -4.267,1.185 -7.0016,-0.0594 -9.3052,-1.4471 0.2917,-0.4419 7.8108,-12.8224 7.8121,-12.8245 m 5.2851,-8.5140298 c 2.5147,-3.31797603 4.465,0.03581 1.4712,3.0787 -2.3983,2.43709 -4.5691,2.57569 -5.1418,2.62456 1.2398,-2.14852 2.6668,-4.37918 3.6706,-5.70326 z M 3.68302,25.42711 c 1.85428,-0.8936 4.34113,0.6744 4.34113,0.6744 -4.41657,2.9338 -6.3012,0.2697 -4.34113,-0.6744 z"
     fill="#003349"
     id="path6" />
  <path
     d="m 27.0027,18.52061 c 2.3794,-3.9857 6.2751,-6.2336 9.2407,-5.7576 2.7283,0.4373 3.4696,2.542 3.4696,2.542 0,0 0.0813,-0.0312 0.3367,-0.7069 1.325,-3.5076 6.0294,-1.667 3.9239,1.6501 -1.9373,3.0522 -5.9244,10.4262 -5.5578,12.4416 0.236,1.2963 -1.3077,1.3439 -1.8189,1.2799 -2.1391,-0.2697 -2.3861,-2.1549 -2.3861,-2.1549 -6.2649,5.7239 -12.1932,-0.9428 -7.2081,-9.2934 m 9.1273,-3.0635 c -1.8328,-0.3353 -4.4562,2.0297 -5.7862,4.6619 -1.88,3.7186 -1.714,6.6031 0.2073,7.1212 1.499,0.4045 3.897,-1.7718 5.5275,-4.5923 2.5555,-4.4205 1.8842,-6.8554 0.0514,-7.1908 z"
     fill="#003349"
     id="path7" />
  <path
     d="m 120.805,15.69681 c 1.398,-2.7446 -2.442,-4.3943 -3.705,-1.4142 -1.095,2.582 -2.209,4.5843 -3.421,7.1259 -0.483,0.8994 -0.994,1.8174 -1.558,2.7918 -1.685,2.9102 -4.156,3.163 -5.092,2.9393 -0.67,-0.1605 -1.485,-1.1206 -0.868,-2.9528 0.426,-1.2613 3.548,-6.82 4.337,-8.0346 1.912,-2.9476 -2.67,-5.2381 -3.845,-1.5014 -0.73,2.3204 -3.082,6.2753 -4.217,8.6404 -2.6301,5.4766 2.907,8.5258 7.778,5.5335 -0.135,0.2965 -0.872,2.0937 -0.983,2.3663 -2.62,0.1306 -5.204,0.7461 -7.401,2.3027 -2.4599,1.7517 -4.4756,5.1884 -2.741,8.1121 2.012,3.227 6.38,2.6751 8.721,0.1588 1.742,-1.8616 2.309,-3.9414 3.182,-6.1148 0.281,-0.6926 0.565,-1.3856 0.852,-2.0773 2.053,0.0657 3.419,0.2607 4.546,0.4735 1.378,0.2603 1.829,-1.7289 0.483,-2.1098 -1.36,-0.385 -3.938,-0.6525 -4.056,-0.6626 0.958,-2.2198 7.722,-15.0304 7.987,-15.5755 m -15.328,23.8304 c -0.9,1.006 -2.888,1.7706 -3.783,0.4739 -0.873,-1.4833 0.675,-3.3706 1.808,-4.2949 1.379,-1.0393 3,-1.6177 4.704,-1.905 -0.781,1.889 -1.411,4.2949 -2.73,5.7256"
     fill="#003349"
     id="path8" />
  <path
     d="m 82.289,33.01131 c 0.4538,-0.8733 -0.3321,-1.8388 -1.3625,-1.362 -0.8703,0.4024 -3.3365,2.0609 -7.3059,2.0609 h -0.0021 c -8.3915,0 -14.9359,-6.5251 -22.6615,-7.1069 0,0 20.2754,-20.4138598 20.6551,-20.8528298 0.3101,-0.34376 0.5011,-0.79916 0.5011,-1.30006 0,-0.62981 -0.3005,-1.188 -0.7662,-1.54061 -0.0021,-0.00211 -0.0072,-0.00505 -0.0097,-0.00716 -0.3241,-0.24097 -0.7227,-0.38421 -1.1572,-0.38421 -0.322,0 -0.625,0.07878 -0.8897,0.21738 -0.1121,0.05224 -0.2242,0.11459 -0.3342,0.18831 -4.3588,2.92198 -10.1159,-0.02359 -14.4225,-0.40779 -6.1154,-0.5464 -7.8858,5.55707 -5.1992,8.2473698 0.9352,0.9348 2.245,0.0383 1.6103,-1.0637498 -0.8568,-1.48332 1.0738,-4.87292 4.7575,-3.86143 1.4341,0.39347 2.8392,0.81812 4.3993,1.23308 2.188,0.58178 4.2682,0.20263 4.2682,0.20263 0,0 -7.0669,8.4242698 -18.7101,19.1950698 -0.0527,0.0476 -0.1075,0.0977 -0.1602,0.1479 -0.1791,0.1647 -0.3173,0.3362 -0.4248,0.5106 -0.0021,0.0046 -0.0072,0.0118 -0.0097,0.0168 -0.1433,0.2696 -0.2242,0.5767 -0.2242,0.9041 0,0.3602 0.0978,0.6963 0.2668,0.9849 0.005,0.0047 0.0097,0.0118 0.0122,0.019 0.8947,1.3363 2.2479,0.8834 2.5787,0.7178 0.5871,-0.2932 1.2622,-0.4149 2.033,-0.4364 6.1486,-0.1719 12.0512,6.2652 19.2188,8.0877 7.4172,1.8856 12.5936,-2.9785 13.3374,-4.41"
     fill="#003349"
     id="path9" />
</svg>
