<?xml version="1.0" encoding="utf-8"?>
<!-- Generator: Adobe Illustrator 28.1.0, SVG Export Plug-In . SVG Version: 6.00 Build 0)  -->
<svg version="1.1" id="Layer_1" xmlns="http://www.w3.org/2000/svg" xmlns:xlink="http://www.w3.org/1999/xlink" x="0px" y="0px"
	 viewBox="0 0 600 220" style="enable-background:new 0 0 600 220;" xml:space="preserve">
<style type="text/css">
	.st0{fill:#FFBD00;}
</style>
<g>
	<g>
		<path class="st0" d="M308.21,156.67l0.34-1.01c4.63-13.61,0.76-18.14-12.89-18.14H1.86v29.21l295.83-10.78
			c6.39-0.3,10.23,1.57,7.69,8.49c0,0-1.01,2.96-1.69,4.87c-0.08,0.22-0.12,0.43-0.16,0.65c-0.07,0.18-1.11,3.07,1.98,5.66
			c4.07,3.4,42.33,4.07,63.75,2c12.85-0.94,26.03-2.55,39.39-4.51c69.62-10.19,145.71-22.66,190.44-6v-29.59
			C512.05,119.09,401.55,166.52,308.21,156.67z"/>
		<path class="st0" d="M398.92,193.68c0.07-0.01,0.17-0.01,0.23-0.02c0,0-0.25,0.03-0.59,0.06c-3.09,0.32-18.56,1.91-21.76,2.24
			c-0.37,0.04-0.63,0.06-0.63,0.06c-22.01,2.35-72.39,3.14-77.43-1.64c-1.62-1.54-1.84-3.73-1.7-5.44
			c-0.05-1.09,0.14-2.26,0.64-3.48l2.54-6c0.85-2.37-0.97-4.74-3.47-4.61L1.86,188.34v28.75l291.89-24.01
			c-0.25,0.72-0.42,1.22-0.51,1.52c-0.65,1.81-1.09,3.43-1.36,4.91l0,0c0,0-3.01,8.34,0.86,12.7c8.36,9.42,71.77,5.25,90.67,4.29
			c1.22-0.05,2.43-0.1,3.65-0.16c0.12,0,0.28-0.01,0.39-0.01c0.06,0,0.06-0.01,0.11-0.01c75.42-3.71,146.89-20.22,211.53,1.87
			v-29.84C542.38,167.65,469.95,185.25,398.92,193.68z"/>
	</g>
	<path d="M1.1,112.39l11.21-69.23h25.84l8.1,28.33c1.04,3.63,1.45,7.06,1.56,7.99h0.62c0.1-3.01,0.52-5.09,1.35-7.99l8.1-28.33
		h25.63l11.31,69.23H70.64l-3.11-31.03c-0.21-2.39-0.42-3.94-0.42-6.85h-0.42c-0.31,1.76-0.93,4.46-1.35,5.81l-10.27,32.07H40.33
		l-9.24-30.31c-0.73-2.49-1.25-4.67-1.35-7.58h-0.73c0,1.35,0,4.05-0.1,5.4l-3.43,32.49H1.1z"/>
	<path d="M103.29,112.39V43.16h25.12v69.23H103.29z"/>
	<path d="M138.05,112.39V43.16h25.12v46.91h21.17l7.64,22.31H138.05z"/>
	<path d="M176.88,43.16h26.05l7.58,32.8c0.52,2.39,1.14,4.46,1.14,8.51h0.62c0.21-4.36,0.83-7.99,1.76-11.62l7.58-29.68h19.3
		l7.99,31.55c0.62,2.49,1.25,7.06,1.45,9.76h0.52c0.1-4.46,0.73-7.47,1.56-11.11l7.16-30.2h26.15l-24.39,69.23h-21.9l-6.54-28.23
		c-0.62-2.8-1.14-6.02-1.35-9.45h-0.83c-0.1,2.28-0.52,7.27-1.04,9.45l-7.16,28.23h-21.38L176.88,43.16z"/>
	<path d="M300.11,103.78l-1.87,8.61h-26.57l23.98-69.23h27.81l24.7,69.23h-26.67l-2.28-8.61H300.11z M310.28,66.31h-0.93
		c-0.1,2.91-0.52,5.29-1.14,7.78l-3.43,13.28h10.07l-3.22-13.28C311.01,71.39,310.59,68.8,310.28,66.31z"/>
	<path d="M347.77,43.16h24.91v40.17c0,2.08,0.21,4.98,2.18,7.06c1.35,1.45,3.01,1.87,4.98,1.87c2.59,0,4.15-0.73,5.08-1.66
		c1.87-1.87,1.87-5.5,1.87-7.27V43.16h25.01v42.45c0,5.4-1.04,13.28-7.26,19.72c-7.06,7.26-17.02,8.61-24.7,8.61
		c-6.33,0-17.85-0.62-25.74-9.13c-5.4-5.81-6.33-12.35-6.33-17.44V43.16z"/>
	<path d="M420.28,112.39V43.16h24.08v21.48c0,3.11-0.1,5.6-0.52,8.72h0.52c1.45-3.94,2.39-5.5,3.63-7.78l11.94-22.42h27.19
		L465.54,77.1l23.87,35.29h-29.06l-12.66-22.21c-1.25-2.08-2.39-4.57-3.32-6.64h-0.52c0.42,2.39,0.52,4.26,0.52,6.54v22.31H420.28z"
		/>
	<path d="M495.97,112.39V43.16h46.7v18.99h-21.59v6.44h19.62v18.16h-19.62v6.64h22.21v18.99H495.97z"/>
	<path d="M551.77,112.39V43.16h46.7v18.99h-21.59v6.44h19.62v18.16h-19.62v6.64h22.21v18.99H551.77z"/>
	<g>
		<g>
			<path d="M32.93,1.32v18.53c0,5.4-3.83,9.16-10.44,9.16c-6.6,0-10.44-3.72-10.44-9.16V1.32h3.62V20.5c0,3,2.78,5.11,6.82,5.11
				s6.82-2.23,6.82-5.11V1.32H32.93z"/>
			<path d="M63.71,29.02h-4.05L44.96,7.05v21.97h-3.62V1.32h4.05l14.7,21.97V1.32h3.62V29.02z"/>
			<path d="M72.46,29.02V1.32h3.62v27.7H72.46z"/>
			<path d="M107.47,1.32l-10.65,27.7h-3.62L82.54,1.32h4.05L95,24.11l8.42-22.79H107.47z"/>
			<path d="M132.73,25.61v3.41h-18.82V1.32h18.39v3.41h-14.77v8.74h13.92v3.41h-13.92v8.74H132.73z"/>
			<path d="M151.3,18.58h-7.46v10.44h-3.62V1.32h12.02c3.54,0,8.87,2.17,8.87,8.52c0,4.87-3.13,7.41-6.18,8.32l6.67,10.85h-4.05
				L151.3,18.58z M143.84,15.17h8.83l0,0.01c0.07-0.01,0.14-0.01,0.22-0.01c1.82,0,4.61-1.91,4.61-5.33c0-3.41-2.72-5.11-4.59-5.11
				h-9.05V15.17z"/>
			<path d="M189.7,21.13c0,5.03-3.63,7.88-10.93,7.88c-8.13,0-11.1-4.93-11.1-8.73h4.05c0,1.95,1.24,5.11,7.27,5.11
				c5.47,0,6.88-2.33,6.88-3.98c0-2.42-2.11-3.17-8.63-5.39c-4.94-1.69-8.61-2.92-8.61-7.55c0-4.66,4.34-7.16,10.14-7.16
				c8.56,0,10.27,5.4,10.27,8.23h-3.62c0-1.33-0.97-4.82-6.5-4.82c-5.09,0-6.66,1.75-6.66,3.67c0,2.71,3.01,3.37,8.18,4.92
				C185.05,14.7,189.7,16.33,189.7,21.13z"/>
			<path d="M197.34,29.02V1.32h3.62v27.7H197.34z"/>
			<path d="M230.14,1.32v3.41h-9.57v24.29h-3.62V4.73h-9.57V1.32H230.14z"/>
			<path d="M248.92,16v12.07h-3.62V16L234,1.32h4.69l8.42,11.16l8.41-11.16h4.69L248.92,16z"/>
			<path d="M308.13,15.17c0,7.65-5.29,13.85-13.21,13.85s-13.21-6.2-13.21-13.85c0-7.65,5.3-13.85,13.21-13.85
				S308.13,7.52,308.13,15.17z M304.29,15.17c0-6.96-4.48-10.44-9.37-10.44c-4.89,0-9.37,3.47-9.37,10.44s4.47,10.44,9.37,10.44
				S304.29,22.13,304.29,15.17z"/>
			<path d="M319.27,4.73v8.74h14.35v3.41h-14.35v12.14h-3.62V1.32h18.82v3.41H319.27z"/>
			<path d="M394.94,1.32L386,29.02h-3.84l-6.71-21.81l-6.71,21.81h-3.84l-8.95-27.7H360l6.8,22.09l6.63-22.09h4.05l6.63,22.09
				l6.8-22.09H394.94z"/>
			<path d="M401.52,29.02V1.32h3.62v27.7H401.52z"/>
			<path d="M434.63,21.13c0,5.03-3.63,7.88-10.93,7.88c-8.13,0-11.1-4.93-11.1-8.73h4.05c0,1.95,1.24,5.11,7.27,5.11
				c5.47,0,6.88-2.33,6.88-3.98c0-2.42-2.11-3.17-8.63-5.39c-4.94-1.69-8.61-2.92-8.61-7.55c0-4.66,4.34-7.16,10.14-7.16
				c8.56,0,10.27,5.4,10.27,8.23h-3.62c0-1.33-0.97-4.82-6.5-4.82c-5.09,0-6.66,1.75-6.66,3.67c0,2.71,3.01,3.37,8.18,4.92
				C429.98,14.7,434.63,16.33,434.63,21.13z"/>
			<path d="M465,23.54c-2.3,3.33-6.05,5.48-10.71,5.48c-7.92,0-13.21-6.2-13.21-13.85c0-7.65,5.3-13.85,13.21-13.85
				c4.66,0,8.41,2.15,10.71,5.48l-3.39,1.7c-1.72-2.52-4.45-3.77-7.32-3.77c-4.78,0-9.16,3.47-9.16,10.44s4.37,10.44,9.16,10.44
				c2.88,0,5.61-1.26,7.32-3.77L465,23.54z"/>
			<path d="M496.69,15.17c0,7.65-5.29,13.85-13.21,13.85c-7.92,0-13.21-6.2-13.21-13.85c0-7.65,5.3-13.85,13.21-13.85
				C491.4,1.32,496.69,7.52,496.69,15.17z M492.86,15.17c0-6.96-4.48-10.44-9.37-10.44c-4.89,0-9.37,3.47-9.37,10.44
				s4.47,10.44,9.37,10.44C488.38,25.61,492.86,22.13,492.86,15.17z"/>
			<path d="M526.6,29.02h-4.05l-14.7-21.97v21.97h-3.62V1.32h4.05l14.7,21.97V1.32h3.62V29.02z"/>
			<path d="M556.11,21.13c0,5.03-3.63,7.88-10.93,7.88c-8.13,0-11.1-4.93-11.1-8.73h4.05c0,1.95,1.24,5.11,7.27,5.11
				c5.47,0,6.88-2.33,6.88-3.98c0-2.42-2.11-3.17-8.63-5.39c-4.94-1.69-8.61-2.92-8.61-7.55c0-4.66,4.34-7.16,10.14-7.16
				c8.56,0,10.27,5.4,10.27,8.23h-3.62c0-1.33-0.97-4.82-6.5-4.82c-5.09,0-6.66,1.75-6.66,3.67c0,2.71,3.01,3.37,8.18,4.92
				C551.46,14.7,556.11,16.33,556.11,21.13z"/>
			<path d="M563.75,29.02V1.32h3.62v27.7H563.75z"/>
			<path d="M594.42,29.02l-14.7-21.97v21.97h-3.62V1.32h4.05l14.7,21.97V1.32h3.62v27.7H594.42z"/>
		</g>
	</g>
</g>
</svg>
